<?xml version="1.0" encoding="utf-8"?>
<!-- Generator: Adobe Illustrator 19.2.1, SVG Export Plug-In . SVG Version: 6.00 Build 0)  -->
<svg version="1.1" id="Ebene_1" xmlns="http://www.w3.org/2000/svg" xmlns:xlink="http://www.w3.org/1999/xlink" x="0px" y="0px"
	 viewBox="0 0 336 87" style="enable-background:new 0 0 336 87;" xml:space="preserve">
<style type="text/css">
	.st0{fill:#004994;}
	.st1{fill:#555555;}
</style>
<title>Logo DGUV RGB</title>
<path class="st0" d="M56.7,49.6c-15.6,0-28.3-12.7-28.3-28.3H0C0,52.6,25.4,78,56.7,78s56.7-25.4,56.7-56.7H85
	C85,36.9,72.3,49.6,56.7,49.6z"/>
<path class="st0" d="M78,21.3c0,11.7-9.5,21.3-21.3,21.3S35.4,33,35.4,21.3C35.4,9.5,45,0,56.7,0C68.4,0,78,9.5,78,21.3
	C78,21.3,78,21.3,78,21.3z"/>
<path class="st1" d="M170.7,69.5c-3.2,4.6-8.2,7.6-13.8,8.2c-2.1,0.2-4.8,0.3-8.2,0.3h-13.8V21.3h11.4c3.3,0,7.6,0.2,9.9,0.3
	c4.7,0.3,9.1,2.3,12.4,5.6c5.2,5.2,7.8,12.4,7.8,22.6C176.4,57.6,174.5,64.4,170.7,69.5z M160.7,35c-1.9-3.1-4.5-4.7-9-4.7h-5.1
	v38.5h6.1c7.5,0,10.9-5.8,10.9-17.8C163.5,44.3,163,38.7,160.7,35L160.7,35z"/>
<path class="st1" d="M208.3,78.7c-8.5,0-14.8-2.8-19.4-8.7c-4.2-5.3-6-11.3-6-19.8c0-12,3.9-20.5,11.8-25.8c4.1-2.7,8.9-4.1,13.8-4
	c6.6-0.1,13,2.2,18,6.5l-6,7.1c-3.3-2.9-7.5-4.4-11.8-4.4c-3-0.2-6,0.9-8.2,2.9c-3.8,3.7-4.8,9.8-4.8,18.3c0,8.1,1.4,13.3,4.2,16.2
	c2.4,2.2,5.6,3.3,8.9,3.2c2.2,0.1,4.4-0.4,6.5-1.4V55.8h-8.7l-1.5-9.3h22v27.1C221.5,77,215,78.7,208.3,78.7z"/>
<path class="st1" d="M277.6,68.4c-1.5,4.5-7,10.7-19.3,10.7c-8.7,0-15-2.6-18.2-7.6c-1.9-2.9-2.5-5.2-2.5-10.7V21.3h11.7v37.3
	c0,3.5,0.3,5.5,1,6.8c1.3,2.5,4,3.9,7.8,3.9c5,0,8.2-2.4,8.7-6.6c0.2-1.7,0.2-3.4,0.2-5.1V21.3h11.6v38.2
	C278.5,64.9,278.4,65.9,277.6,68.4z"/>
<path class="st1" d="M312.1,78.4h-10.4l-19.3-57.2h12.5l9.4,29.6c1,3.2,1.9,6.5,2.6,9.9c0.9-3.8,2-7.6,3.3-11.3l9.6-28.1h12
	L312.1,78.4z"/>
</svg>
