<svg id="Ebene_1" data-name="Ebene 1" xmlns="http://www.w3.org/2000/svg" viewBox="0 0 746.27 160.13"><defs><style>.cls-1{fill:#004994;}.cls-2{fill:#555;}.cls-3{fill:#9c9c9c;}</style></defs><title>Logo DGUV RGB</title><path class="cls-1" d="M98.15,107.75A28.38,28.38,0,0,1,69.81,79.4H41.46a56.69,56.69,0,1,0,113.38,0H126.5A28.39,28.39,0,0,1,98.15,107.75Z" transform="translate(-41.46 -58.13)"/><path class="cls-1" d="M119.42,79.39A21.26,21.26,0,1,1,98.15,58.13,21.26,21.26,0,0,1,119.42,79.39Z" transform="translate(-41.46 -58.13)"/><path class="cls-2" d="M212.13,127.67a19.45,19.45,0,0,1-13.8,8.17c-2.12.16-4.82,0.33-8.17,0.33h-13.8V79.39h11.44c3.27,0,7.6.16,9.88,0.33a19.25,19.25,0,0,1,12.42,5.64c5.23,5.15,7.76,12.42,7.76,22.63C217.85,115.74,216,122.52,212.13,127.67Zm-10-34.55c-1.88-3.1-4.49-4.74-9-4.74H188v38.47h6.13c7.51,0,10.95-5.8,10.95-17.81C205,102.43,204.45,96.87,202.17,93.12Z" transform="translate(-41.46 -58.13)"/><path class="cls-2" d="M249.79,136.82c-8.5,0-14.78-2.78-19.36-8.66-4.17-5.31-6-11.35-6-19.85,0-12,3.92-20.5,11.84-25.81a23.44,23.44,0,0,1,13.8-4A27,27,0,0,1,268.08,85l-6,7.11a18,18,0,0,0-11.84-4.41A11.57,11.57,0,0,0,242,90.58c-3.84,3.68-4.82,9.8-4.82,18.3,0,8.09,1.39,13.31,4.25,16.17a12.6,12.6,0,0,0,8.9,3.19,13.43,13.43,0,0,0,6.45-1.39V113.95h-8.66l-1.47-9.31h22v27.12A36.54,36.54,0,0,1,249.79,136.82Z" transform="translate(-41.46 -58.13)"/><path class="cls-2" d="M319.05,126.52c-1.47,4.49-7,10.7-19.28,10.7-8.66,0-15-2.61-18.21-7.6-1.88-2.94-2.45-5.23-2.45-10.7V79.39h11.68v37.33c0,3.51.33,5.55,1,6.78,1.31,2.53,4,3.92,7.76,3.92,5,0,8.17-2.45,8.66-6.62a36.07,36.07,0,0,0,.16-5.06V79.39h11.6v38.23C319.95,123,319.87,124.07,319.05,126.52Z" transform="translate(-41.46 -58.13)"/><path class="cls-2" d="M353.52,136.57H343.14L323.87,79.39h12.5L345.76,109a101.67,101.67,0,0,1,2.61,9.88,109.16,109.16,0,0,1,3.27-11.35l9.64-28.1h12Z" transform="translate(-41.46 -58.13)"/><path class="cls-2" d="M191.65,171.89c-2.09,2.66-4.25,3.49-8.89,3.49h-6.16V150.47h5.18c4.68,0,7.45.86,9.79,3.53,1.84,2.12,2.7,5.11,2.7,9A14.06,14.06,0,0,1,191.65,171.89Zm-3.56-16c-1.15-1.58-2.45-2.16-4.68-2.16h-2.63V172h2.74c4.39,0,6.16-2.92,6.16-8.57C189.67,160.23,189.39,157.67,188.09,155.91Z" transform="translate(-41.46 -58.13)"/><path class="cls-2" d="M201.7,167.35v0.29c0,2.52.94,5.18,4.5,5.18a6.71,6.71,0,0,0,4.54-1.8l1.55,2.41a9.84,9.84,0,0,1-6.55,2.41c-5.15,0-8.39-3.71-8.39-9.54,0-3.2.68-5.33,2.27-7.13a6.93,6.93,0,0,1,5.58-2.45,7,7,0,0,1,5,1.87c1.58,1.44,2.37,3.67,2.37,7.92v0.83H201.7Zm3.49-7.63c-2.23,0-3.46,1.76-3.46,4.72h6.73C208.47,161.49,207.17,159.72,205.19,159.72Z" transform="translate(-41.46 -58.13)"/><path class="cls-2" d="M228.66,176a4,4,0,0,1-1.58-2.27,6.61,6.61,0,0,1-5.18,2.23,5.77,5.77,0,0,1-4.54-1.8c-0.72-.86-1-2.05-1-4.32V157.45l3.89-.72v12.2c0,2.27.32,3.92,2.66,3.92a4.41,4.41,0,0,0,3.56-2.38v-13l3.82-.72v13.71c0,2.74,1.12,3.64,1.12,3.64Z" transform="translate(-41.46 -58.13)"/><path class="cls-2" d="M240.44,175.85c-3.53,0-4.75-2.09-4.75-4.68V159.9h-2v-2.74h2a36.2,36.2,0,0,1,.18-4.5l4.07-1a50.41,50.41,0,0,0-.32,5.47H244l-1,2.74h-3.35v10.22c0,2.27.5,2.92,2.23,2.92a4.61,4.61,0,0,0,1.69-.36l0.5,2.38A8.41,8.41,0,0,1,240.44,175.85Z" transform="translate(-41.46 -58.13)"/><path class="cls-2" d="M252.6,175.88a14.69,14.69,0,0,1-7-2L247,171a12.72,12.72,0,0,0,5.9,1.91,2.66,2.66,0,0,0,3-2.56c0-1.4-.9-2.12-3-2.56l-2.2-.47c-2.74-.58-4.36-2.45-4.36-5,0-3.42,2.74-5.8,6.77-5.8a12.5,12.5,0,0,1,6,1.58l-1.3,2.74a9.24,9.24,0,0,0-4.46-1.33c-1.69,0-2.77.94-2.77,2.34,0,1.12.61,1.69,2.45,2.16l2.27,0.58c3.67,0.94,4.64,3,4.64,5.08C260,173.36,257,175.88,252.6,175.88Z" transform="translate(-41.46 -58.13)"/><path class="cls-2" d="M270.43,175.85c-5,0-7.74-3.49-7.74-9.36,0-6.62,4-9.79,8-9.79a6.63,6.63,0,0,1,5,2l-2,2.63a4.48,4.48,0,0,0-3.06-1.4,3.1,3.1,0,0,0-2.88,1.84,12.31,12.31,0,0,0-.76,5.08c0,2.48.4,4.07,1.22,5a3.2,3.2,0,0,0,2.41,1,5.25,5.25,0,0,0,3.67-1.8l1.87,2.41A7.59,7.59,0,0,1,270.43,175.85Z" transform="translate(-41.46 -58.13)"/><path class="cls-2" d="M289.65,175.38V163c0-2.27-.79-2.92-2.3-2.92a6.74,6.74,0,0,0-4.39,2.23v13.07h-4V153.71a18.79,18.79,0,0,0-.36-4l4-.86a19.55,19.55,0,0,1,.36,4.28v3.89c0,1.15-.07,2.05-0.07,2.05a8.19,8.19,0,0,1,5.58-2.38,4.92,4.92,0,0,1,4.43,2.23,6.94,6.94,0,0,1,.61,3.56v12.85h-3.85Z" transform="translate(-41.46 -58.13)"/><path class="cls-2" d="M302.18,167.35v0.29c0,2.52.94,5.18,4.5,5.18a6.71,6.71,0,0,0,4.54-1.8l1.55,2.41a9.84,9.84,0,0,1-6.55,2.41c-5.15,0-8.39-3.71-8.39-9.54,0-3.2.68-5.33,2.27-7.13a6.93,6.93,0,0,1,5.58-2.45,7,7,0,0,1,5,1.87c1.58,1.44,2.37,3.67,2.37,7.92v0.83H302.18Zm3.49-7.63c-2.23,0-3.46,1.76-3.46,4.72h6.73C308.95,161.49,307.65,159.72,305.67,159.72Z" transform="translate(-41.46 -58.13)"/><path class="cls-2" d="M334.58,175.7c-3.49,0-6.19-1.12-8.13-3.53s-2.77-5.15-2.77-9.07c0-5.11,1.55-8.67,4.68-11a9.61,9.61,0,0,1,6.16-1.94,11.06,11.06,0,0,1,7.41,2.63l-2.09,2.59a8.17,8.17,0,0,0-5.26-1.91c-4.61,0-6.3,4-6.3,9.86,0,3.49.65,5.94,1.84,7.34a6.22,6.22,0,0,0,4.71,1.87,6.82,6.82,0,0,0,3.31-.79v-6.48h-4.25l-0.58-3.38h9v11.73A15.15,15.15,0,0,1,334.58,175.7Z" transform="translate(-41.46 -58.13)"/><path class="cls-2" d="M350.67,167.35v0.29c0,2.52.94,5.18,4.5,5.18a6.71,6.71,0,0,0,4.54-1.8l1.55,2.41a9.84,9.84,0,0,1-6.55,2.41c-5.15,0-8.39-3.71-8.39-9.54,0-3.2.68-5.33,2.27-7.13a6.93,6.93,0,0,1,5.58-2.45,7,7,0,0,1,5,1.87c1.58,1.44,2.38,3.67,2.38,7.92v0.83H350.67Zm3.49-7.63c-2.23,0-3.46,1.76-3.46,4.72h6.73C357.43,161.49,356.14,159.72,354.16,159.72Z" transform="translate(-41.46 -58.13)"/><path class="cls-2" d="M370.69,175.88a14.69,14.69,0,0,1-7-2l1.4-2.84a12.72,12.72,0,0,0,5.9,1.91,2.66,2.66,0,0,0,3-2.56c0-1.4-.9-2.12-3-2.56l-2.2-.47c-2.74-.58-4.36-2.45-4.36-5,0-3.42,2.74-5.8,6.77-5.8a12.5,12.5,0,0,1,6,1.58l-1.3,2.74a9.24,9.24,0,0,0-4.46-1.33c-1.69,0-2.77.94-2.77,2.34,0,1.12.61,1.69,2.45,2.16l2.27,0.58c3.67,0.94,4.64,3,4.64,5.08C378.06,173.36,375.08,175.88,370.69,175.88Z" transform="translate(-41.46 -58.13)"/><path class="cls-2" d="M385.3,167.35v0.29c0,2.52.94,5.18,4.5,5.18a6.71,6.71,0,0,0,4.54-1.8l1.55,2.41a9.84,9.84,0,0,1-6.55,2.41c-5.15,0-8.39-3.71-8.39-9.54,0-3.2.68-5.33,2.27-7.13a6.93,6.93,0,0,1,5.58-2.45,7,7,0,0,1,5,1.87c1.58,1.44,2.37,3.67,2.37,7.92v0.83H385.3Zm3.49-7.63c-2.23,0-3.46,1.76-3.46,4.72h6.73C392.07,161.49,390.77,159.72,388.79,159.72Z" transform="translate(-41.46 -58.13)"/><path class="cls-2" d="M404.88,175.85c-3.53,0-4.75-2.09-4.75-4.68V159.9h-2v-2.74h2a36.2,36.2,0,0,1,.18-4.5l4.07-1a50.38,50.38,0,0,0-.32,5.47h4.36l-1,2.74H404v10.22c0,2.27.5,2.92,2.23,2.92a4.61,4.61,0,0,0,1.69-.36l0.5,2.38A8.41,8.41,0,0,1,404.88,175.85Z" transform="translate(-41.46 -58.13)"/><path class="cls-2" d="M422.92,175.38H410.07v-2.63L419.21,160h-8.42v-2.81h12.89V160L415,172.61h9Z" transform="translate(-41.46 -58.13)"/><path class="cls-2" d="M431.49,175.78c-4,0-4-3.6-4-5.15V155.11a29.51,29.51,0,0,0-.36-5.33l4.07-.9a22,22,0,0,1,.32,5v15.44c0,2.45.11,2.84,0.4,3.28a1.11,1.11,0,0,0,1.3.29l0.65,2.45A6.21,6.21,0,0,1,431.49,175.78Z" transform="translate(-41.46 -58.13)"/><path class="cls-2" d="M438.9,154.47a2.58,2.58,0,0,1-2.56-2.63A2.61,2.61,0,1,1,438.9,154.47Zm-2,20.91V157.45l4-.72v18.65h-4Z" transform="translate(-41.46 -58.13)"/><path class="cls-2" d="M453,175.85c-5,0-7.74-3.49-7.74-9.36,0-6.62,4-9.79,8-9.79a6.63,6.63,0,0,1,5,2l-2,2.63a4.48,4.48,0,0,0-3.06-1.4,3.1,3.1,0,0,0-2.88,1.84,12.31,12.31,0,0,0-.76,5.08c0,2.48.4,4.07,1.22,5a3.2,3.2,0,0,0,2.41,1,5.24,5.24,0,0,0,3.67-1.8l1.87,2.41A7.59,7.59,0,0,1,453,175.85Z" transform="translate(-41.46 -58.13)"/><path class="cls-2" d="M472.2,175.38V163c0-2.27-.79-2.92-2.3-2.92a6.74,6.74,0,0,0-4.39,2.23v13.07h-4V153.71a18.79,18.79,0,0,0-.36-4l4-.86a19.55,19.55,0,0,1,.36,4.28v3.89c0,1.15-.07,2.05-0.07,2.05a8.19,8.19,0,0,1,5.58-2.38,4.93,4.93,0,0,1,4.43,2.23,6.93,6.93,0,0,1,.61,3.56v12.85H472.2Z" transform="translate(-41.46 -58.13)"/><path class="cls-2" d="M484.73,167.35v0.29c0,2.52.94,5.18,4.5,5.18a6.71,6.71,0,0,0,4.54-1.8l1.55,2.41a9.84,9.84,0,0,1-6.55,2.41c-5.15,0-8.39-3.71-8.39-9.54,0-3.2.68-5.33,2.27-7.13a6.93,6.93,0,0,1,5.58-2.45,7,7,0,0,1,5,1.87c1.58,1.44,2.38,3.67,2.38,7.92v0.83H484.73Zm3.49-7.63c-2.23,0-3.46,1.76-3.46,4.72h6.73C491.5,161.49,490.2,159.72,488.22,159.72Z" transform="translate(-41.46 -58.13)"/><path class="cls-2" d="M515.72,175.81c-6.55,0-8.6-3.38-8.6-7.38v-18h4.18v16.74c0,3.82,1.37,5.08,4.43,5.08s4.5-1.76,4.5-5.08V150.47h4.14V168.4C524.36,173,521.19,175.81,515.72,175.81Z" transform="translate(-41.46 -58.13)"/><path class="cls-2" d="M539.55,175.38V163.29c0-2.48-.58-3.17-2.09-3.17a6.6,6.6,0,0,0-4,2.05v13.21h-3.89V162a10.77,10.77,0,0,0-.68-4.32l3.6-1a5.32,5.32,0,0,1,.65,2.59c1.94-1.66,3.64-2.52,5.58-2.52,2.81,0,4.75,1.69,4.75,5v13.61h-3.92Z" transform="translate(-41.46 -58.13)"/><path class="cls-2" d="M557.19,152.49a4.71,4.71,0,0,0-2.2-.65c-1.37,0-2.23.94-2.23,2.56v2.77h4.75l-1,2.74H552.8v15.48h-3.92V159.9h-1.69v-2.74h1.76s-0.11-1-.11-2.7c0-3.78,2.3-5.54,5.54-5.54a7.91,7.91,0,0,1,4.1,1Z" transform="translate(-41.46 -58.13)"/><path class="cls-2" d="M571.3,176.14a4.27,4.27,0,0,1-2.48-2.45,6.19,6.19,0,0,1-5,2.23c-4.18,0-6-2.3-6-5.47,0-4.21,3.17-6.34,9-6.34H568v-1c0-2.09-.36-3.2-2.52-3.2-2.63,0-5.44,2.09-5.44,2.09l-1.76-2.84A13.66,13.66,0,0,1,566,156.7c2.84,0,4.75,1,5.54,3,0.32,0.79.32,1.76,0.29,4.46l-0.07,5.22c0,2.45.18,3.24,1.58,4.21Zm-4.1-9.36c-4,0-5.15,1.15-5.15,3.46,0,1.73.94,2.81,2.52,2.81a4.12,4.12,0,0,0,3.28-1.91l0.07-4.32S567.49,166.78,567.2,166.78Z" transform="translate(-41.46 -58.13)"/><path class="cls-2" d="M581.21,175.78c-4,0-4-3.6-4-5.15V155.11a29.5,29.5,0,0,0-.36-5.33l4.07-.9a22,22,0,0,1,.32,5v15.44c0,2.45.11,2.84,0.4,3.28a1.11,1.11,0,0,0,1.3.29l0.65,2.45A6.21,6.21,0,0,1,581.21,175.78Z" transform="translate(-41.46 -58.13)"/><path class="cls-2" d="M590.28,175.78c-4,0-4-3.6-4-5.15V155.11a29.5,29.5,0,0,0-.36-5.33l4.07-.9a22,22,0,0,1,.32,5v15.44c0,2.45.11,2.84,0.4,3.28a1.11,1.11,0,0,0,1.3.29l0.65,2.45A6.21,6.21,0,0,1,590.28,175.78Z" transform="translate(-41.46 -58.13)"/><path class="cls-2" d="M603.05,175.45h-3.49L593,157.31l4.07-.58,3.17,9.83c0.61,1.91,1.12,4.07,1.12,4.07h0.07a35.64,35.64,0,0,1,1.08-4.21l3-9.25h4.14Z" transform="translate(-41.46 -58.13)"/><path class="cls-2" d="M615.48,167.35v0.29c0,2.52.94,5.18,4.5,5.18a6.71,6.71,0,0,0,4.54-1.8l1.55,2.41a9.84,9.84,0,0,1-6.55,2.41c-5.15,0-8.39-3.71-8.39-9.54,0-3.2.68-5.33,2.27-7.13a6.93,6.93,0,0,1,5.58-2.45,7,7,0,0,1,5,1.87c1.58,1.44,2.38,3.67,2.38,7.92v0.83H615.48Zm3.49-7.63c-2.23,0-3.46,1.76-3.46,4.72h6.73C622.25,161.49,620.95,159.72,619,159.72Z" transform="translate(-41.46 -58.13)"/><path class="cls-2" d="M638.8,160.62a3,3,0,0,0-1.12-.25,3.59,3.59,0,0,0-3.42,2.7v12.31h-4V162.53a14.48,14.48,0,0,0-.65-4.89l3.64-.94a6.41,6.41,0,0,1,.68,2.88c1.44-2,2.88-2.92,4.64-2.92a3,3,0,0,1,1.4.29Z" transform="translate(-41.46 -58.13)"/><path class="cls-2" d="M647.38,175.88a14.69,14.69,0,0,1-7-2l1.4-2.84a12.72,12.72,0,0,0,5.9,1.91,2.66,2.66,0,0,0,3-2.56c0-1.4-.9-2.12-3-2.56l-2.2-.47c-2.74-.58-4.36-2.45-4.36-5,0-3.42,2.74-5.8,6.77-5.8a12.51,12.51,0,0,1,6,1.58l-1.3,2.74a9.24,9.24,0,0,0-4.46-1.33c-1.69,0-2.77.94-2.77,2.34,0,1.12.61,1.69,2.45,2.16l2.27,0.58c3.67,0.94,4.64,3,4.64,5.08C654.75,173.36,651.77,175.88,647.38,175.88Z" transform="translate(-41.46 -58.13)"/><path class="cls-2" d="M660.33,154.47a2.58,2.58,0,0,1-2.56-2.63A2.61,2.61,0,1,1,660.33,154.47Zm-2,20.91V157.45l4-.72v18.65h-4Z" transform="translate(-41.46 -58.13)"/><path class="cls-2" d="M674.41,175.85c-5,0-7.74-3.49-7.74-9.36,0-6.62,4-9.79,8-9.79a6.63,6.63,0,0,1,5,2l-2,2.63a4.48,4.48,0,0,0-3.06-1.4,3.1,3.1,0,0,0-2.88,1.84,12.31,12.31,0,0,0-.76,5.08c0,2.48.4,4.07,1.22,5a3.2,3.2,0,0,0,2.41,1,5.24,5.24,0,0,0,3.67-1.8l1.87,2.41A7.59,7.59,0,0,1,674.41,175.85Z" transform="translate(-41.46 -58.13)"/><path class="cls-2" d="M693.63,175.38V163c0-2.27-.79-2.92-2.3-2.92a6.74,6.74,0,0,0-4.39,2.23v13.07h-4V153.71a18.79,18.79,0,0,0-.36-4l4-.86a19.55,19.55,0,0,1,.36,4.28v3.89c0,1.15-.07,2.05-0.07,2.05a8.19,8.19,0,0,1,5.58-2.38,4.92,4.92,0,0,1,4.43,2.23,6.93,6.93,0,0,1,.61,3.56v12.85h-3.85Z" transform="translate(-41.46 -58.13)"/><path class="cls-2" d="M706.16,167.35v0.29c0,2.52.94,5.18,4.5,5.18a6.71,6.71,0,0,0,4.54-1.8l1.55,2.41a9.84,9.84,0,0,1-6.55,2.41c-5.15,0-8.39-3.71-8.39-9.54,0-3.2.68-5.33,2.27-7.13a6.93,6.93,0,0,1,5.58-2.45,7,7,0,0,1,5,1.87c1.58,1.44,2.38,3.67,2.38,7.92v0.83H706.16Zm3.49-7.63c-2.23,0-3.45,1.76-3.45,4.72h6.73C712.93,161.49,711.63,159.72,709.65,159.72Z" transform="translate(-41.46 -58.13)"/><path class="cls-2" d="M729.49,160.62a3,3,0,0,0-1.12-.25,3.59,3.59,0,0,0-3.42,2.7v12.31h-4V162.53a14.48,14.48,0,0,0-.65-4.89l3.64-.94a6.41,6.41,0,0,1,.68,2.88c1.44-2,2.88-2.92,4.64-2.92a3,3,0,0,1,1.4.29Z" transform="translate(-41.46 -58.13)"/><path class="cls-2" d="M745,176a4,4,0,0,1-1.58-2.27,6.61,6.61,0,0,1-5.18,2.23,5.77,5.77,0,0,1-4.54-1.8c-0.72-.86-1-2.05-1-4.32V157.45l3.89-.72v12.2c0,2.27.32,3.92,2.66,3.92a4.41,4.41,0,0,0,3.56-2.38v-13l3.82-.72v13.71c0,2.74,1.12,3.64,1.12,3.64Z" transform="translate(-41.46 -58.13)"/><path class="cls-2" d="M761.63,175.38V163.29c0-2.48-.58-3.17-2.09-3.17a6.6,6.6,0,0,0-4,2.05v13.21h-3.89V162a10.77,10.77,0,0,0-.68-4.32l3.6-1a5.32,5.32,0,0,1,.65,2.59c1.94-1.66,3.64-2.52,5.58-2.52,2.81,0,4.75,1.69,4.75,5v13.61h-3.92Z" transform="translate(-41.46 -58.13)"/><path class="cls-2" d="M784.57,160.08a5,5,0,0,1-1.4-.18,4.79,4.79,0,0,1,1.19,3.17c0,3.17-2.63,5.58-6.91,5.58-1.3.47-2.45,1.15-2.45,1.73s0.25,0.76,4.54.76c2.92,0,6,1.48,6,5.18,0,3.89-3.24,6-8.1,6s-8.14-1.55-8.14-5a7.45,7.45,0,0,1,.36-1.94h3.74a4.25,4.25,0,0,0-.29,1.3c0,1.69,1.44,2.63,4,2.63,2.81,0,4.32-1.15,4.32-2.84,0-2-1.66-2.52-5-2.52-4.9,0-6-1-6-2.77s1.51-2.52,3.46-3.13c-2.74-.79-4.14-2.56-4.14-5.15,0-3.71,2.91-6.16,7.27-6.16,2.59,0,4.07.94,5.54,0.94a5.15,5.15,0,0,0,3.31-1.26l1.84,2.48A4.48,4.48,0,0,1,784.57,160.08Zm-7.56-.36a2.84,2.84,0,0,0-3.13,3.17c0,2.09,1.19,3.06,3.13,3.06A3.11,3.11,0,1,0,777,159.72Z" transform="translate(-41.46 -58.13)"/><path class="cls-3" d="M182.43,211.79a14.17,14.17,0,0,1-7.26-2l1.41-2.82a11.31,11.31,0,0,0,6,1.82c2.72,0,4.35-1.31,4.35-3.52,0-1.63-1-2.66-3.29-3.3l-2.37-.67a7.26,7.26,0,0,1-4.29-2.66,5.58,5.58,0,0,1-.93-3.23c0-3.9,3.07-6.56,7.52-6.56a12.31,12.31,0,0,1,7,2.11l-1.66,2.59a9.52,9.52,0,0,0-5.22-1.7c-2.18,0-3.62,1.18-3.62,3,0,1.38.77,2.08,2.94,2.72l2.62,0.77c3.2,0.93,5.44,3,5.44,6.3C191.07,208.37,188.1,211.79,182.43,211.79Z" transform="translate(-41.46 -58.13)"/><path class="cls-3" d="M201.76,211.7a6.27,6.27,0,0,1-3.84-1.31s0.06,0.7.06,1.6v5.41l-3.39.86V199.38a18.52,18.52,0,0,0-.32-4l3.23-.58a7.09,7.09,0,0,1,.26,2,5.53,5.53,0,0,1,4.32-1.92c3.26,0,6.11,2.46,6.11,8.1C208.19,208.31,205.89,211.7,201.76,211.7Zm-0.35-14a4.52,4.52,0,0,0-3.42,1.66v8.06a4.53,4.53,0,0,0,3,1.44c2.37,0,3.42-1.76,3.42-5.6C204.42,199.7,203.71,197.75,201.41,197.75Z" transform="translate(-41.46 -58.13)"/><path class="cls-3" d="M213.79,192.79a2.29,2.29,0,0,1-2.27-2.34A2.32,2.32,0,1,1,213.79,192.79ZM212,211.38V195.44l3.55-.64v16.57H212Z" transform="translate(-41.46 -58.13)"/><path class="cls-3" d="M224.61,211.79c-3.14,0-4.22-1.86-4.22-4.16v-10h-1.79v-2.43h1.79a32.1,32.1,0,0,1,.16-4l3.62-.86a44.68,44.68,0,0,0-.29,4.86h3.87l-0.93,2.43h-3v9.09c0,2,.45,2.59,2,2.59a4.09,4.09,0,0,0,1.5-.32l0.45,2.11A7.47,7.47,0,0,1,224.61,211.79Z" transform="translate(-41.46 -58.13)"/><path class="cls-3" d="M240.64,211.38H229.21V209l8.13-11.36h-7.49v-2.5h11.46v2.5l-7.68,11.23h8Z" transform="translate(-41.46 -58.13)"/><path class="cls-3" d="M247.46,204.24v0.26c0,2.24.83,4.61,4,4.61a6,6,0,0,0,4-1.6l1.38,2.14a8.75,8.75,0,0,1-5.82,2.14c-4.58,0-7.46-3.3-7.46-8.48,0-2.85.61-4.74,2-6.34a6.16,6.16,0,0,1,5-2.18,6.26,6.26,0,0,1,4.45,1.66c1.41,1.28,2.11,3.26,2.11,7v0.74h-9.66Zm3.1-6.78c-2,0-3.07,1.57-3.07,4.19h6C253.47,199,252.32,197.46,250.56,197.46Z" transform="translate(-41.46 -58.13)"/><path class="cls-3" d="M269.5,211.38V200.63c0-2.21-.51-2.82-1.86-2.82a5.87,5.87,0,0,0-3.55,1.82v11.74h-3.46v-11.9a9.58,9.58,0,0,0-.61-3.84l3.2-.9a4.73,4.73,0,0,1,.58,2.3c1.73-1.47,3.23-2.24,5-2.24,2.5,0,4.22,1.5,4.22,4.48v12.1H269.5Z" transform="translate(-41.46 -58.13)"/><path class="cls-3" d="M284.16,211.44h-3.1l-5.82-16.13,3.62-.51,2.82,8.74c0.54,1.7,1,3.62,1,3.62h0.06a31.5,31.5,0,0,1,1-3.74l2.69-8.22H290Z" transform="translate(-41.46 -58.13)"/><path class="cls-3" d="M295.2,204.24v0.26c0,2.24.83,4.61,4,4.61a6,6,0,0,0,4-1.6l1.38,2.14a8.75,8.75,0,0,1-5.82,2.14c-4.58,0-7.46-3.3-7.46-8.48,0-2.85.61-4.74,2-6.34a6.16,6.16,0,0,1,5-2.18,6.26,6.26,0,0,1,4.45,1.66c1.41,1.28,2.11,3.26,2.11,7v0.74H295.2Zm3.1-6.78c-2,0-3.07,1.57-3.07,4.19h6C301.22,199,300.07,197.46,298.31,197.46Z" transform="translate(-41.46 -58.13)"/><path class="cls-3" d="M315.94,198.26a2.64,2.64,0,0,0-1-.22,3.2,3.2,0,0,0-3,2.4v10.94h-3.52V200a12.87,12.87,0,0,0-.58-4.35l3.23-.83a5.7,5.7,0,0,1,.61,2.56c1.28-1.76,2.56-2.59,4.13-2.59A2.65,2.65,0,0,1,317,195Z" transform="translate(-41.46 -58.13)"/><path class="cls-3" d="M326.14,211.73a4.9,4.9,0,0,1-3.94-1.86,4,4,0,0,1-.45,1.5h-3.23a9.08,9.08,0,0,0,.42-3.62V192.5a12.9,12.9,0,0,0-.42-3.9l3.65-.8a17.47,17.47,0,0,1,.26,3.23v3.78a8.78,8.78,0,0,1-.1,1.54l0.13,0a5.14,5.14,0,0,1,3.84-1.57c3.87,0,6.3,3.17,6.3,8.22S329.92,211.73,326.14,211.73Zm-0.61-14a3.87,3.87,0,0,0-3.07,1.63v7.9a4.2,4.2,0,0,0,3,1.41c2.21,0,3.17-1.6,3.17-5.66C328.64,200.15,328.06,197.78,325.54,197.78Z" transform="translate(-41.46 -58.13)"/><path class="cls-3" d="M347.2,212a3.8,3.8,0,0,1-2.21-2.18,5.5,5.5,0,0,1-4.45,2c-3.71,0-5.38-2-5.38-4.86,0-3.74,2.82-5.63,8-5.63h1.09V200.5c0-1.86-.32-2.85-2.24-2.85a9.78,9.78,0,0,0-4.83,1.86L335.62,197a12.15,12.15,0,0,1,6.88-2.21c2.53,0,4.22.93,4.93,2.69,0.29,0.7.29,1.57,0.26,4l-0.06,4.64c0,2.18.16,2.88,1.41,3.74Zm-3.65-8.32c-3.52,0-4.58,1-4.58,3.07a2.19,2.19,0,0,0,2.24,2.5,3.66,3.66,0,0,0,2.91-1.7l0.06-3.84S343.81,203.73,343.55,203.73Z" transform="translate(-41.46 -58.13)"/><path class="cls-3" d="M361.31,211.38V200.63c0-2.21-.51-2.82-1.86-2.82a5.87,5.87,0,0,0-3.55,1.82v11.74h-3.46v-11.9a9.58,9.58,0,0,0-.61-3.84l3.2-.9a4.74,4.74,0,0,1,.58,2.3c1.73-1.47,3.23-2.24,5-2.24,2.5,0,4.22,1.5,4.22,4.48v12.1h-3.49Z" transform="translate(-41.46 -58.13)"/><path class="cls-3" d="M379.52,211.38a4,4,0,0,1-.29-1.25,5.31,5.31,0,0,1-4,1.6c-4.13,0-6.62-3.23-6.62-8.29s2.82-8.54,6.72-8.54a4.58,4.58,0,0,1,3.49,1.47s-0.1-1.25-.1-2.66V187.8l3.49,0.54v17.41c0,3.2.19,4.83,0.51,5.63h-3.23ZM378.75,199a3.84,3.84,0,0,0-2.94-1.31c-2.24,0-3.26,1.79-3.26,5.7,0,3.58.7,5.38,3.36,5.38a3.36,3.36,0,0,0,2.85-1.54V199Z" transform="translate(-41.46 -58.13)"/></svg>